<svg width="480" height="417" viewBox="0 0 480 417" fill="none" xmlns="http://www.w3.org/2000/svg">
<g clip-path="url(#clip0_787_2)">
<path fill-rule="evenodd" clip-rule="evenodd" d="M188.641 129.906L71.711 332.462L44.411 286.173L75.924 231.925L13.338 231.76L0 208.631L13.62 184.973L102.704 185.255L134.721 130.046L188.641 129.906ZM197.611 291.826L431.453 291.838L405.025 338.631L342.299 338.457L373.45 392.753L360.093 415.872L332.799 415.902L288.501 338.594L224.693 338.465L197.611 291.826ZM333.715 203.071L216.805 0.504002L270.532 0L301.745 54.422L333.18 0.291L359.875 0.300999L373.548 23.929L328.762 100.956L360.554 156.293L333.715 203.071Z" fill="#7EBAE4"/>
<path fill-rule="evenodd" clip-rule="evenodd" d="M146.443 213.347L263.354 415.914L209.626 416.418L178.414 361.996L146.979 416.127L120.283 416.117L106.611 392.49L151.396 315.463L119.604 260.125L146.443 213.347ZM282.236 124.08L48.3945 124.069L74.8215 77.2759L137.548 77.4489L106.398 23.1539L119.755 0.0339088L147.048 0.00390625L191.347 77.3129L255.155 77.4419L282.236 124.08ZM291.359 286.469L408.289 83.9129L435.59 130.202L404.076 184.45L466.662 184.615L480 207.744L466.38 231.402L377.296 231.121L345.28 286.329L291.359 286.469Z" fill="#5277C3"/>
</g>
<defs>
<clipPath id="clip0_787_2">
<rect width="480" height="416.42" fill="white"/>
</clipPath>
</defs>
</svg>
